<?xml version="1.0" encoding="utf-8"?>
<!DOCTYPE svg PUBLIC "-//W3C//DTD SVG 1.1//EN" "http://www.w3.org/Graphics/SVG/1.1/DTD/svg11.dtd">
<svg version="1.1" id="Capa_1" xmlns="http://www.w3.org/2000/svg" xmlns:xlink="http://www.w3.org/1999/xlink" x="0px" y="0px"
	 width="22.615px" height="22.54px" viewBox="0 0 22.615 22.54" enable-background="new 0 0 22.615 22.54" xml:space="preserve">
<g>
	<path fill-rule="evenodd" clip-rule="evenodd" fill="#fff" d="M0.749,11.265c0-1.482-0.016-2.959,0-4.431
		c0.024-2.922,2.042-5.388,4.906-5.988c0.433-0.093,0.89-0.133,1.336-0.135c2.877-0.011,5.754-0.014,8.634-0.003
		c3.134,0.008,5.645,2.136,6.173,5.223c0.048,0.298,0.069,0.601,0.069,0.903c0.008,2.948,0.016,5.902-0.003,8.856
		c-0.019,2.933-2.021,5.388-4.891,5.998c-0.428,0.096-0.868,0.139-1.307,0.139c-2.909,0.016-5.815,0.016-8.718,0
		c-2.981-0.011-5.419-1.982-6.06-4.883c-0.101-0.457-0.136-0.93-0.138-1.392c-0.021-1.43-0.008-2.858-0.008-4.288
		C0.744,11.265,0.744,11.265,0.749,11.265z M20.112,11.265c0-1.456,0.003-2.911,0-4.367c-0.005-2.486-1.952-4.431-4.431-4.431
		c-2.917-0.006-5.829-0.006-8.746,0c-2.481,0-4.431,1.949-4.431,4.431c-0.003,2.917-0.003,5.828,0,8.745
		c0,2.476,1.947,4.426,4.434,4.431c2.914,0,5.829,0,8.743,0c2.483-0.005,4.426-1.955,4.431-4.431
		C20.115,14.182,20.112,12.726,20.112,11.265z"/>
	<path fill-rule="evenodd" clip-rule="evenodd" fill="#fff" d="M16.146,11.265c0,2.662-2.184,4.851-4.843,4.846
		c-2.662,0-4.846-2.194-4.835-4.856C6.471,8.608,8.649,6.43,11.3,6.43C13.962,6.425,16.146,8.603,16.146,11.265z M8.224,11.26
		c-0.002,1.705,1.371,3.087,3.068,3.092c1.703,0.005,3.087-1.365,3.095-3.061c0.008-1.716-1.365-3.103-3.079-3.103
		C9.608,8.188,8.229,9.564,8.224,11.26z"/>
	<path fill-rule="evenodd" clip-rule="evenodd" fill="#fff" d="M18.348,5.543c0.003,0.712-0.59,1.313-1.308,1.322
		c-0.722,0.006-1.336-0.605-1.328-1.328c0.003-0.717,0.601-1.312,1.318-1.312C17.748,4.226,18.345,4.825,18.348,5.543z"/>
</g>
</svg>
