<?xml version="1.0" encoding="utf-8"?>
<!DOCTYPE svg PUBLIC "-//W3C//DTD SVG 1.1//EN" "http://www.w3.org/Graphics/SVG/1.1/DTD/svg11.dtd">
<svg version="1.1" xmlns="http://www.w3.org/2000/svg" xmlns:xlink="http://www.w3.org/1999/xlink" x="0px" y="0px"
	 width="283px" height="283" viewBox="0 0 283 283" enable-background="new 0 0 283 283"
	 xml:space="preserve">
<path fill="#688900" stroke="#FFFFFF" stroke-width="7" stroke-miterlimit="10" d="M277.306,142.799
	c0,74.877-60.699,135.576-135.572,135.576c-74.877,0-135.575-60.699-135.575-135.576c0-74.873,60.698-135.571,135.575-135.571
	C216.606,7.228,277.306,67.926,277.306,142.799z"/>
<path fill="none" stroke="#FFFFFF" stroke-width="7" stroke-miterlimit="10" d="M32.828,122.852h45.816
	c0,0,12.48,0.004,17.511,5.839c5.027,5.838,5.027,18,5.027,18v36.979"/>
<path fill="none" stroke="#FFFFFF" stroke-width="7" stroke-miterlimit="10" d="M252.581,122.852H138.413
	c0,0-12.483,0.004-17.511,5.839c-5.029,5.838-5.029,18-5.029,18v36.979"/>
<line fill="none" stroke="#FFFFFF" stroke-width="7" stroke-miterlimit="10" x1="137.724" y1="183.67" x2="137.724" y2="146.69"/>
<path fill="none" stroke="#FFFFFF" stroke-width="7" stroke-miterlimit="10" d="M180.689,179.771h-11.902c0,0-6.791,0-9.528-3.178
	c-2.731-3.175-2.731-9.791-2.731-9.791V146.69"/>
<g>
	<path fill="none" stroke="#FFFFFF" stroke-width="7" stroke-miterlimit="10" d="M215.391,179.771h-11.901c0,0-6.792,0-9.527-3.178
		c-2.734-3.175-2.734-12.388-2.734-12.388"/>
	<path fill="none" stroke="#FFFFFF" stroke-width="7" stroke-miterlimit="10" d="M215.391,150.583h-11.901c0,0-6.792,0-9.527,3.178
		c-2.734,3.174-2.734,10.444-2.734,10.444"/>
	<line fill="none" stroke="#FFFFFF" stroke-width="7" stroke-miterlimit="10" x1="201.096" y1="165.178" x2="215.391" y2="165.178"/>
</g>
</svg>
