<?xml version="1.0" encoding="utf-8"?>
<!DOCTYPE svg PUBLIC "-//W3C//DTD SVG 1.1//EN" "http://www.w3.org/Graphics/SVG/1.1/DTD/svg11.dtd">
<svg version="1.1" id="Capa_1" xmlns="http://www.w3.org/2000/svg" xmlns:xlink="http://www.w3.org/1999/xlink" x="0px" y="0px"
	 width="22.615px" height="22.54px" viewBox="0 0 22.615 22.54" enable-background="new 0 0 22.615 22.54" xml:space="preserve">
<g>
	<path fill-rule="evenodd" clip-rule="evenodd" fill="#fff" d="M22.031,11.082c-0.021,3.124-1.163,5.77-3.453,7.884
		c-1.626,1.503-3.57,2.364-5.775,2.651c-2.141,0.276-4.157-0.117-6.094-1.025c-0.229-0.106-0.457-0.133-0.707-0.064
		c-1.621,0.43-3.241,0.845-4.861,1.265c-0.09,0.026-0.202,0.096-0.276,0.005c-0.061-0.075,0-0.176,0.024-0.261
		c0.396-1.456,0.787-2.917,1.195-4.373c0.141-0.494,0.101-0.924-0.13-1.402c-0.975-2.03-1.302-4.166-0.93-6.397
		c0.401-2.375,1.472-4.394,3.235-6.03c1.735-1.61,3.81-2.486,6.155-2.768c2.128-0.252,4.136,0.154,5.998,1.164
		c2.954,1.591,4.771,4.054,5.446,7.354C21.994,9.743,22.06,10.407,22.031,11.082z M11.424,19.912c0.316,0,0.629-0.016,0.943-0.048
		c1.501-0.154,2.88-0.653,4.104-1.52c2.099-1.493,3.371-3.517,3.722-6.083c0.176-1.286,0.071-2.55-0.327-3.783
		c-0.695-2.146-1.994-3.841-3.96-4.973c-2.41-1.392-4.949-1.6-7.545-0.627C6.183,3.686,4.586,5.181,3.553,7.272
		C2.75,8.887,2.52,10.593,2.75,12.367c0.141,1.068,0.505,2.072,1.039,3.007c0.335,0.589,0.38,1.185,0.144,1.822
		c-0.229,0.627-0.364,1.286-0.534,1.934c-0.048,0.181-0.016,0.223,0.172,0.175c0.824-0.223,1.652-0.419,2.465-0.653
		c0.401-0.117,0.744-0.09,1.116,0.112C8.47,19.513,9.894,19.927,11.424,19.912z"/>
	<path fill-rule="evenodd" clip-rule="evenodd" fill="#fff" d="M14.295,16.182c-1.084-0.026-2.072-0.382-3.018-0.887
		c-2.062-1.11-3.554-2.789-4.71-4.792C5.784,9.147,5.978,7.58,7.006,6.549c0.438-0.438,1.02-0.388,1.493-0.25
		c0.117,0.032,0.194,0.133,0.247,0.239c0.327,0.707,0.63,1.424,0.89,2.157c0.08,0.212,0.008,0.415-0.093,0.595
		C9.395,9.557,9.198,9.774,8.999,9.998c-0.178,0.207-0.199,0.393-0.056,0.643c0.845,1.418,2.016,2.444,3.555,3.055
		c0.321,0.127,0.438,0.09,0.653-0.181c0.229-0.281,0.451-0.568,0.683-0.845c0.229-0.282,0.409-0.324,0.738-0.17
		c0.627,0.303,1.251,0.611,1.884,0.909c0.252,0.122,0.369,0.292,0.363,0.595c-0.026,1.153-1.022,2.13-2.25,2.178
		C14.479,16.182,14.386,16.182,14.295,16.182z"/>
</g>
</svg>
